<svg xmlns="http://www.w3.org/2000/svg" viewBox="0 0 122 122" width="122" height="122">
	<defs>
		<clipPath clipPathUnits="userSpaceOnUse" id="cp1">
			<path d="M61.5 96C42.42 96 27 80.58 27 61.5C27 42.42 42.42 27 61.5 27C80.58 27 96 42.42 96 61.5C96 80.58 80.58 96 61.5 96Z" />
		</clipPath>
	</defs>
	<style>
		tspan { white-space:pre }
		.shp0 { fill: #2689bf } 
		.shp1 { fill: #ffffff } 
	</style>
	<g id="Group_348">
		<g id="Layer">
			<path id="Ellipse_1-2" class="shp0" d="M61 122C27.27 122 0 94.73 0 61C0 27.27 27.27 0 61 0C94.73 0 122 27.27 122 61C122 94.73 94.73 122 61 122Z" />
		</g>
		<g id="Clip-Path: Mask_Group_26" clip-path="url(#cp1)">
			<g id="Mask_Group_26">
				<g id="eye_1_">
					<path id="Path_121" fill-rule="evenodd" class="shp1" d="M95.29 59.86C95.46 60.09 95.6 60.35 95.69 60.63C95.78 60.91 95.83 61.2 95.83 61.49C95.83 61.79 95.78 62.08 95.69 62.36C95.6 62.63 95.46 62.9 95.29 63.13C86.47 74.9 74.52 82.14 61.33 82.14C48.15 82.14 36.2 74.9 27.38 63.11C27.21 62.88 27.07 62.62 26.98 62.34C26.89 62.06 26.84 61.77 26.84 61.48C26.84 61.19 26.89 60.89 26.98 60.62C27.07 60.34 27.21 60.08 27.38 59.84C36.2 48.08 48.15 40.83 61.33 40.83C74.52 40.83 86.47 48.08 95.29 59.86ZM62.28 76.03C64.03 75.91 65.74 75.48 67.33 74.75C68.92 74.03 70.37 73.02 71.6 71.78C72.84 70.54 73.84 69.09 74.56 67.49C75.28 65.9 75.7 64.19 75.81 62.44C76.21 56.38 72.8 50.71 67.27 48.21C61.73 45.71 55.23 46.91 50.94 51.21C46.66 55.52 45.49 62.03 48.01 67.55C50.54 73.07 56.22 76.45 62.28 76.03L62.28 76.03ZM54.17 64.74C52.81 61.76 53.44 58.26 55.75 55.94C58.05 53.63 61.56 52.98 64.53 54.33C67.51 55.67 69.35 58.72 69.14 61.98C69.08 62.93 68.86 63.85 68.47 64.71C68.08 65.57 67.54 66.36 66.88 67.03C66.21 67.7 65.43 68.24 64.57 68.63C63.71 69.02 62.78 69.25 61.84 69.31C58.58 69.53 55.52 67.71 54.17 64.74Z" />
				</g>
			</g>
		</g>
	</g>
</svg>