<svg xmlns="http://www.w3.org/2000/svg" xmlns:xlink="http://www.w3.org/1999/xlink" width="122" height="122" viewBox="0 0 122 122">
  <defs>
    <clipPath id="clip-path">
      <circle id="Ellipse_5" data-name="Ellipse 5" cx="31.5" cy="31.5" r="31.5" transform="translate(609 1021)" fill="#fff"/>
    </clipPath>
  </defs>
  <g id="Group_437" data-name="Group 437" transform="translate(-578 -1081)">
    <g id="Group_350" data-name="Group 350" transform="translate(-406 150)">
      <circle id="Ellipse_1" data-name="Ellipse 1" cx="61" cy="61" r="61" transform="translate(984 931)" fill="#2689bf"/>
    </g>
    <g id="Mask_Group_26" data-name="Mask Group 26" transform="translate(-1 90)" clip-path="url(#clip-path)">
      <g id="button" transform="translate(609 1021)">
        <g id="Group_353" data-name="Group 353">
          <g id="Group_352" data-name="Group 352">
            <path id="Path_125" data-name="Path 125" d="M33.011,17.25A15.761,15.761,0,1,0,48.773,33.011,15.767,15.767,0,0,0,33.011,17.25Z" transform="translate(-1.489 -1.489)" fill="#fff"/>
            <path id="Path_126" data-name="Path 126" d="M31.523,0A31.523,31.523,0,1,0,63.045,31.523,31.514,31.514,0,0,0,31.523,0Zm0,56.741A25.218,25.218,0,1,1,56.741,31.523,25.211,25.211,0,0,1,31.523,56.741Z" fill="#fff"/>
          </g>
        </g>
      </g>
    </g>
  </g>
</svg>
