<svg xmlns="http://www.w3.org/2000/svg" xmlns:xlink="http://www.w3.org/1999/xlink" width="122" height="122" viewBox="0 0 122 122">
  <defs>
    <clipPath id="clip-path">
      <circle id="Ellipse_9" data-name="Ellipse 9" cx="37.5" cy="37.5" r="37.5" transform="translate(414 1480)" fill="#fff"/>
    </clipPath>
  </defs>
  <g id="Group_439" data-name="Group 439" transform="translate(-386 -1442)">
    <g id="Group_358" data-name="Group 358" transform="translate(-598 511)">
      <circle id="Ellipse_1" data-name="Ellipse 1" cx="61" cy="61" r="61" transform="translate(984 931)" fill="#2689bf"/>
    </g>
    <g id="Mask_Group_30" data-name="Mask Group 30" transform="translate(-4 -14)" clip-path="url(#clip-path)">
      <g id="group-profile-users" transform="translate(422.696 1492.282)">
        <g id="Group_367" data-name="Group 367" transform="translate(0 0)">
          <path id="Path_131" data-name="Path 131" d="M12.029,17.158a7.155,7.155,0,0,0,5.252-2.176,7.158,7.158,0,0,0,2.177-5.253,7.158,7.158,0,0,0-2.177-5.253A7.156,7.156,0,0,0,12.029,2.3,7.157,7.157,0,0,0,6.777,4.476,7.158,7.158,0,0,0,4.6,9.729a7.158,7.158,0,0,0,2.176,5.253A7.158,7.158,0,0,0,12.029,17.158Z" transform="translate(-0.886 -2.3)" fill="#fff"/>
          <path id="Path_132" data-name="Path 132" d="M23.965,30.523a10.738,10.738,0,0,0,7.879,3.264,10.737,10.737,0,0,0,7.879-3.264,10.74,10.74,0,0,0,3.264-7.879,10.738,10.738,0,0,0-3.264-7.879A10.735,10.735,0,0,0,31.843,11.5a10.736,10.736,0,0,0-7.879,3.265A10.736,10.736,0,0,0,20.7,22.644,10.738,10.738,0,0,0,23.965,30.523Z" transform="translate(-3.985 -4.071)" fill="#fff"/>
          <path id="Path_133" data-name="Path 133" d="M53.43,17.158a7.156,7.156,0,0,0,5.252-2.176,7.158,7.158,0,0,0,2.176-5.253,7.159,7.159,0,0,0-2.176-5.253,7.426,7.426,0,0,0-10.505,0A7.159,7.159,0,0,0,46,9.729a7.159,7.159,0,0,0,2.176,5.253A7.158,7.158,0,0,0,53.43,17.158Z" transform="translate(-8.855 -2.3)" fill="#fff"/>
          <path id="Path_134" data-name="Path 134" d="M61.3,20.7a5.557,5.557,0,0,0-1.262.609,19.051,19.051,0,0,1-2.829,1.234,10.192,10.192,0,0,1-3.453.624A11.652,11.652,0,0,1,49.9,22.5a14.57,14.57,0,0,1,.145,1.915,12.774,12.774,0,0,1-2.351,7.429,10.006,10.006,0,0,1,7.691,3.715h3.888a6.653,6.653,0,0,0,4-1.176A3.976,3.976,0,0,0,64.9,30.945Q64.9,20.7,61.3,20.7Z" transform="translate(-9.18 -5.842)" fill="#fff"/>
          <path id="Path_135" data-name="Path 135" d="M49.553,47.262a24.575,24.575,0,0,0-.769-3.149,14.955,14.955,0,0,0-1.247-2.829,10.231,10.231,0,0,0-1.8-2.351,7.585,7.585,0,0,0-2.481-1.553,8.715,8.715,0,0,0-3.236-.58,3.418,3.418,0,0,0-1.248.624q-.958.623-2.118,1.393a12.739,12.739,0,0,1-3.105,1.393,13.475,13.475,0,0,1-10.941-1.393q-1.161-.768-2.118-1.393a3.419,3.419,0,0,0-1.248-.624,8.717,8.717,0,0,0-3.236.58,7.573,7.573,0,0,0-2.481,1.553,10.207,10.207,0,0,0-1.8,2.351,14.925,14.925,0,0,0-1.248,2.829,24.646,24.646,0,0,0-.769,3.149A29.5,29.5,0,0,0,9.3,50.425q-.1,1.466-.1,3a7.231,7.231,0,0,0,2.118,5.5,7.83,7.83,0,0,0,5.63,2.017H42.311a7.831,7.831,0,0,0,5.63-2.017,7.231,7.231,0,0,0,2.118-5.5q0-1.538-.1-3A30,30,0,0,0,49.553,47.262Z" transform="translate(-1.771 -8.941)" fill="#fff"/>
          <path id="Path_136" data-name="Path 136" d="M17.208,31.844a12.775,12.775,0,0,1-2.35-7.429A14.493,14.493,0,0,1,15,22.5a11.662,11.662,0,0,1-3.86.667,10.191,10.191,0,0,1-3.453-.624A19.067,19.067,0,0,1,4.861,21.31,5.541,5.541,0,0,0,3.6,20.7Q0,20.7,0,30.945a3.976,3.976,0,0,0,1.625,3.439,6.654,6.654,0,0,0,4,1.175H9.518A10.006,10.006,0,0,1,17.208,31.844Z" transform="translate(0 -5.842)" fill="#fff"/>
        </g>
      </g>
    </g>
  </g>
</svg>
